<?xml version="1.0" encoding="UTF-8"?>
<svg id="AW" xmlns="http://www.w3.org/2000/svg" xmlns:xlink="http://www.w3.org/1999/xlink" viewBox="0 0 1942 588">
  <defs>
    <linearGradient id="linear-gradient" x1="269.09" y1="10.8" x2="269.09" y2="742.7" gradientTransform="translate(536.15 -2.04) rotate(90)" gradientUnits="userSpaceOnUse">
      <stop offset=".19" stop-color="#871fff"/>
      <stop offset="1" stop-color="#00005e"/>
    </linearGradient>
  </defs>
  <g>
    <path d="M797.74,269.91c-10.67-6.37-22.03-9.78-34.06-10.21v-3.22c11.03-2.58,20.88-6.84,29.55-12.79,8.66-5.94,15.51-13.61,20.52-22.99,5.01-9.38,7.52-20.38,7.52-32.99,0-16.04-3.91-30.23-11.71-42.55-7.81-12.32-19.56-22.03-35.25-29.12-15.69-7.09-35.28-10.64-58.78-10.64h-127.01v320.21h135.18c24.21,0,44.45-3.83,60.71-11.5,16.26-7.66,28.55-18.16,36.86-31.49,8.31-13.32,12.47-28.44,12.47-45.34,0-15.76-3.33-29.34-9.99-40.72-6.67-11.39-15.33-20.28-26-26.65ZM654.07,158.91h53.08c15.33,0,27.11,3.65,35.35,10.96,8.24,7.31,12.36,16.76,12.36,28.37,0,8.59-2.11,16.01-6.34,22.24-4.22,6.23-10.07,11.03-17.51,14.4-7.45,3.37-15.83,5.05-25.15,5.05h-51.79v-81.02ZM752.93,360.5c-8.89,7.45-22.93,11.17-42.13,11.17h-56.73v-86.82h58.45c11.03,0,20.56,1.97,28.59,5.91,8.02,3.94,14.22,9.39,18.59,16.33,4.37,6.95,6.55,14.93,6.55,23.96,0,12.17-4.44,21.99-13.32,29.44Z" style="fill: #031133;"/>
    <path d="M998.99,309.99c-5.16,15.62-9.67,31.34-13.54,47.17-1.29,5.3-2.59,10.79-3.88,16.24-1.13-5.42-2.29-10.87-3.31-16.13-3.08-15.76-7.06-31.51-11.93-47.28l-40.4-124.65h-68.56l90.27,240.91-1.72,12.89c-.86,8.02-3.33,14.25-7.41,18.7-4.08,4.44-9.49,7.16-16.23,8.16-6.73,1-14.4.35-22.99-1.94l-7.95-1.93-14.82,48.57c4.58,1.86,10.6,3.41,18.05,4.62,7.45,1.22,15.48,1.83,24.07,1.83,16.04,0,29.73-2.58,41.05-7.74,11.32-5.16,20.77-12.47,28.37-21.92,7.59-9.46,13.82-20.64,18.69-33.53l102.08-268.63h-67.69l-42.13,124.65Z" style="fill: #031133;"/>
    <rect x="1144.27" y="105.4" width="64.47" height="320.21" style="fill: #031133;"/>
    <path d="M1295.78,87.78c-9.75,0-18.05,3.22-24.93,9.67-6.88,6.45-10.32,14.26-10.32,23.43s3.44,16.98,10.32,23.42c6.88,6.45,15.18,9.67,24.93,9.67s18.08-3.23,25.04-9.67c6.95-6.45,10.42-14.25,10.42-23.42s-3.47-16.98-10.42-23.43c-6.95-6.45-15.3-9.67-25.04-9.67Z" style="fill: #031133;"/>
    <rect x="1263.54" y="185.34" width="64.47" height="240.27" style="fill: #031133;"/>
    <path d="M1562.8,193.19c-12.39-7.24-26.9-10.85-43.52-10.85-20.34,0-36.93,5.48-49.75,16.43-10.56,9.03-18.87,21.18-25,36.37l-.89-49.8h-60.82v240.27h64.47v-139.05c0-10.75,1.97-19.84,5.91-27.3,3.94-7.45,9.46-13.14,16.55-17.08,7.09-3.94,15.15-5.92,24.18-5.92,13.61,0,24.25,4.23,31.91,12.68,7.66,8.46,11.5,20.13,11.5,35.03v141.62h64.47v-152.8c0-18.77-3.41-34.92-10.21-48.46-6.81-13.54-16.41-23.92-28.8-31.16Z" style="fill: #031133;"/>
    <path d="M1874.96,304.19c0-20.63-2.91-38.53-8.71-53.73-5.8-15.18-13.86-27.83-24.18-37.93-10.32-10.1-22.28-17.65-35.89-22.67-13.62-5.01-28.3-7.52-44.06-7.52-23.35,0-43.7,5.23-61.03,15.68-17.34,10.46-30.73,25-40.19,43.63-9.46,18.63-14.18,40.33-14.18,65.12s4.76,47.28,14.29,65.76c9.52,18.48,23.17,32.74,40.94,42.77,17.76,10.03,38.9,15.04,63.4,15.04,18.77,0,35.35-2.72,49.75-8.17,14.4-5.44,26.4-13.14,36-23.1,9.6-9.96,16.33-21.53,20.2-34.71l-58.45-10.96c-2.29,6.16-5.62,11.35-9.99,15.58-4.37,4.23-9.64,7.41-15.8,9.56-6.16,2.15-13.04,3.23-20.63,3.23-11.17,0-20.95-2.36-29.33-7.09-8.38-4.73-14.9-11.82-19.56-21.28-4.2-8.54-6.41-18.99-6.81-31.16h164.23v-18.06ZM1734.3,238.64c7.81-5.16,17.3-7.73,28.48-7.73s20.31,2.55,27.83,7.63c7.52,5.09,13.18,12.25,16.98,21.49,2.66,6.47,4.33,13.77,5.13,21.81h-101.79c.73-8.13,2.61-15.56,5.65-22.24,4.01-8.81,9.92-15.79,17.73-20.95Z" style="fill: #031133;"/>
  </g>
  <g>
    <rect x="67.04" y="65.01" width="404.1" height="404.1" rx="45.56" ry="45.56" transform="translate(2.04 536.15) rotate(-90)" style="fill: url(#linear-gradient);"/>
    <g>
      <g>
        <rect x="111.6" y="121.96" width="120.86" height="23.96" rx="11.98" ry="11.98" style="fill: #031133;"/>
        <rect x="111.6" y="178.01" width="83.16" height="23.96" rx="11.98" ry="11.98" style="fill: #031133;"/>
        <rect x="111.6" y="234.07" width="45.47" height="23.96" rx="11.98" ry="11.98" style="fill: #031133;"/>
        <rect x="111.6" y="121.96" width="113.09" height="23.96" rx="11.98" ry="11.98" style="fill: #fff;"/>
        <rect x="111.6" y="178.01" width="75.4" height="23.96" rx="11.98" ry="11.98" style="fill: #fff;"/>
        <rect x="111.6" y="234.07" width="37.7" height="23.96" rx="11.98" ry="11.98" style="fill: #fff;"/>
      </g>
      <g>
        <rect x="306.21" y="387.58" width="120.86" height="23.96" rx="11.98" ry="11.98" transform="translate(733.27 799.12) rotate(180)" style="fill: #031133;"/>
        <rect x="343.9" y="331.53" width="83.16" height="23.96" rx="11.98" ry="11.98" transform="translate(770.97 687.02) rotate(180)" style="fill: #031133;"/>
        <rect x="313.97" y="387.58" width="113.09" height="23.96" rx="11.98" ry="11.98" transform="translate(741.04 799.12) rotate(180)" style="fill: #fff;"/>
        <rect x="351.67" y="331.53" width="75.4" height="23.96" rx="11.98" ry="11.98" transform="translate(778.74 687.02) rotate(180)" style="fill: #fff;"/>
      </g>
    </g>
    <path d="M346.42,215.3s19.85,9.79,53.63-6.52c-2.6,3.43-10.48,18.21-31.53,28.33-15.09,7.26-27.03,10.89-48.92,15.78,0,0,22.84,11.78,53.53-4.39-23.96,34.96-43,45.99-107.39,65.28,0,0,16.02,9.77,49.37-4.76-6.31,9.35-15.09,16.01-21.55,21.3-20.8,17.04-33.89,15.88-74.69,21.43-8.05,17.66-15.04,35.63-18.72,53.88-1.48,8.83-5.31,16.56-12.25,24.28l-2.07.4c-2.07-4.35-2.67-8.87-2.67-13.41,0-1.29.03-2.56.13-3.85,2-17.22,9.02-31.97,16.01-48.49,1.8-4.21,3.7-8.41,5.67-12.57,2.09-4.4,4.25-8.8,6.5-13.15,3.84-7.51,7.93-14.96,12.24-22.33,4.24-7.24,8.69-14.42,13.35-21.52,2.12-3.52,4.27-7.02,6.5-10.51,4.79-7.63,9.77-15.18,14.92-22.69,7.5-10.94,15.32-21.77,23.37-32.49,5.83-7.74,11.75-15.44,17.77-23.08,6.7-8.52,13.5-16.97,20.36-25.39l-2.39-3.24c-8.98,9-17.72,18.13-26.23,27.4-7.12,7.75-14.06,15.57-20.82,23.5-1.66,1.91-3.29,3.84-4.92,5.77-7.47,8.91-14.66,17.95-21.5,27.14-5.64,7.53-11.04,15.16-16.22,22.87-7.06,10.51-13.69,21.19-19.84,32.02-4.17,7.34-8.13,14.78-11.85,22.27-.09.15-.16.29-.23.45-.05-.14-.09-.26-.13-.4-1.96-5.41-1.22-21.14-.72-29.2.51-8.77,2.91-18.83,6.12-30.15,11.23-39.63,38.11-71,44.16-78.56,43.75-54.72,115.95-103.46,151.53-96.75,16.64,3.14,19.41,15.18,20.99,19.27.09.25.18.49.28.72,21.69,56.5-61.44,86.6-71.81,91.34Z" style="fill: #fff;"/>
  </g>
</svg>